<?xml version="1.0" ?><svg viewBox="0 0 20.727 22.434" xmlns="http://www.w3.org/2000/svg"><g data-name="Layer 2" id="Layer_2"><g data-name="Layer 1" id="Layer_1-2"><path d="M20.272,12.241a8.725,8.725,0,0,1-1.846-3.068,9.2,9.2,0,0,0-18.4-.212c-.287,3.2,2.049,5.964,3.4,8.543a9.978,9.978,0,0,1,.6,2.969,2.14,2.14,0,0,0,2.143,1.961H7.412a2.155,2.155,0,0,0,2.152-2.152V17.91H12.4a3.967,3.967,0,0,0,3.964-3.963.34.34,0,0,0-.34-.34H12.848a3.96,3.96,0,0,0-3.284,1.747V11.568h1.472A3.967,3.967,0,0,0,15,7.6a.34.34,0,0,0-.339-.34H12.848A3.963,3.963,0,0,0,9.564,9.011V8.057A3.968,3.968,0,0,0,5.6,4.093H4.241a.341.341,0,0,0-.34.34A3.968,3.968,0,0,0,7.865,8.4H8.884v3.785A3.963,3.963,0,0,0,5.6,10.435H2.882a.341.341,0,0,0-.34.34,3.968,3.968,0,0,0,3.964,3.964H8.884v5.543a1.473,1.473,0,0,1-1.472,1.472H6.171a1.463,1.463,0,0,1-1.466-1.341A9.534,9.534,0,0,0,2.71,14.9,8.661,8.661,0,0,1,8.741.7a8.562,8.562,0,0,1,9.006,8.51,8.175,8.175,0,0,0,2.006,3.465,1,1,0,0,1,.279.669c-.008.045-.033.185-.29.334a15.431,15.431,0,0,1-1.833.871.339.339,0,0,0-.214.361,13.26,13.26,0,0,1,.036,3.233c-.1.509-1.247.851-2.862.851a1.38,1.38,0,0,0-1.5,1.448v1.648a.34.34,0,0,0,.679,0V20.446a.724.724,0,0,1,.819-.768c4.116-.021,3.757-1.469,3.531-4.591C19.56,14.568,21.653,13.917,20.272,12.241Zm-7.424,2.045h2.814A3.29,3.29,0,0,1,12.4,17.231H9.581A3.29,3.29,0,0,1,12.848,14.286Zm0-6.342H14.3a3.289,3.289,0,0,1-3.267,2.944H9.581A3.29,3.29,0,0,1,12.848,7.944ZM7.865,7.717A3.29,3.29,0,0,1,4.6,4.773h1A3.289,3.289,0,0,1,8.867,7.717ZM6.506,14.06a3.29,3.29,0,0,1-3.267-2.945H5.6A3.29,3.29,0,0,1,8.867,14.06Z" id="psychology"/></g></g></svg>