<?xml version="1.0" standalone="no"?>
<!DOCTYPE svg PUBLIC "-//W3C//DTD SVG 20010904//EN"
 "http://www.w3.org/TR/2001/REC-SVG-20010904/DTD/svg10.dtd">
<svg version="1.0" xmlns="http://www.w3.org/2000/svg"
 width="512.000000pt" height="512.000000pt" viewBox="0 0 512.000000 512.000000"
 preserveAspectRatio="xMidYMid meet">

<g transform="translate(0.000000,512.000000) scale(0.100000,-0.100000)"
fill="#000000" stroke="none">
<path d="M2390 5110 c-461 -63 -852 -336 -1059 -739 -84 -164 -151 -396 -151
-526 0 -23 -3 -45 -7 -48 -3 -4 -39 24 -79 62 -114 108 -245 173 -410 202 -83
14 -141 5 -196 -31 -77 -51 -110 -138 -88 -232 33 -142 145 -313 265 -403 36
-27 65 -52 65 -55 0 -3 -13 -13 -29 -23 -171 -101 -340 -403 -301 -541 28 -99
107 -156 218 -156 191 0 417 115 546 278 l50 62 36 -103 c82 -229 206 -420
376 -575 l75 -68 -24 -85 c-55 -189 -77 -400 -77 -755 l0 -240 28 -55 c42 -83
127 -128 218 -114 51 7 143 66 200 126 133 141 178 267 209 584 27 279 43 322
138 369 53 26 68 29 160 30 190 1 256 -44 286 -194 6 -30 18 -130 26 -223 19
-198 41 -294 94 -402 69 -141 216 -276 317 -291 91 -13 183 36 223 119 20 40
21 60 21 298 0 356 -24 579 -81 766 l-21 67 76 69 c259 235 413 552 447 920
16 174 6 655 -15 772 -106 569 -541 1010 -1107 1120 -99 19 -337 28 -429 15z
m414 -231 c462 -93 829 -474 911 -943 10 -59 15 -152 15 -277 l0 -188 -42 15
c-143 51 -428 102 -693 125 -180 15 -689 15 -870 0 -256 -22 -551 -75 -692
-125 l-43 -15 0 188 c0 270 26 403 117 589 152 313 453 553 785 627 176 39
333 40 512 4z m-2089 -1043 c157 -42 313 -177 346 -299 15 -56 0 -70 -67 -65
-121 10 -274 130 -344 270 -22 44 -40 87 -40 94 0 18 40 18 105 0z m2231 -436
c289 -23 509 -62 693 -122 l93 -31 -7 -71 c-14 -146 -79 -340 -158 -470 -68
-112 -217 -286 -245 -286 -5 0 -31 29 -59 63 -85 106 -211 189 -353 235 -124
40 -180 47 -360 46 -155 -1 -186 -4 -274 -27 -183 -49 -333 -141 -426 -262
-23 -30 -47 -55 -52 -55 -15 0 -129 119 -175 182 -127 173 -209 379 -229 577
l-6 67 78 27 c186 63 463 112 739 130 123 8 624 6 741 -3z m-1884 -203 c4 -6
5 -25 2 -42 -18 -88 -131 -211 -246 -268 -72 -35 -191 -67 -204 -55 -13 13 29
109 77 177 65 93 158 163 264 197 44 15 95 10 107 -9z m1713 -663 c106 -21
222 -82 295 -157 101 -101 173 -270 209 -487 28 -170 44 -710 21 -710 -5 0
-36 26 -68 58 -101 99 -131 188 -157 467 -19 202 -35 279 -75 361 -70 144
-227 224 -439 224 -211 0 -371 -81 -441 -224 -41 -84 -56 -155 -75 -346 -21
-215 -37 -290 -80 -377 -32 -66 -120 -163 -146 -163 -24 0 -3 550 27 730 68
400 254 602 590 640 95 10 244 4 339 -16z"/>
<path d="M2950 3247 c-75 -19 -120 -78 -120 -157 0 -137 166 -206 266 -109 59
57 67 126 24 196 -35 58 -105 87 -170 70z"/>
<path d="M2053 3230 c-89 -54 -104 -174 -30 -247 59 -60 150 -63 216 -7 80 67
61 213 -33 258 -46 22 -114 20 -153 -4z"/>
<path d="M3681 1276 c-53 -29 -68 -115 -28 -160 17 -20 52 -34 150 -61 71 -19
133 -37 138 -41 5 -3 9 -202 9 -469 0 -321 3 -472 11 -489 28 -60 122 -71 170
-20 l24 26 5 435 5 435 141 -71 c169 -86 366 -213 413 -266 68 -78 75 -108 81
-332 5 -196 6 -202 29 -227 48 -51 142 -40 170 20 15 33 15 376 0 446 -30 141
-118 256 -283 367 -268 179 -537 302 -855 392 -116 32 -145 35 -180 15z"/>
<path d="M1115 1216 c-263 -88 -475 -192 -701 -341 -170 -113 -251 -213 -289
-356 -18 -67 -21 -425 -4 -463 28 -60 122 -71 170 -20 23 25 24 31 29 227 6
224 13 255 80 331 48 54 241 179 409 264 l146 74 5 -435 5 -435 24 -26 c33
-35 85 -44 127 -21 18 10 36 25 41 34 4 9 10 229 13 490 l5 474 78 22 c88 26
105 37 124 83 28 67 -24 142 -96 142 -20 -1 -94 -20 -166 -44z"/>
<path d="M1889 651 c-23 -24 -29 -38 -29 -73 0 -51 14 -70 90 -126 94 -69 224
-129 354 -164 112 -31 383 -33 496 -4 159 40 336 128 420 208 35 34 40 44 40
84 0 37 -6 51 -29 75 -47 46 -87 41 -186 -26 -95 -63 -166 -97 -273 -127 -111
-32 -314 -32 -425 0 -104 30 -186 69 -277 131 -92 63 -135 68 -181 22z"/>
</g>
</svg>
